Coordinates
version=1
nRows=36
nColumns=33
inDegrees=yes

Units are S.I. units (second, meters, Newtons, ...)
Angles are in degrees.

endheader
time	ground_thorax_rot_x	ground_thorax_rot_y	ground_thorax_rot_z	ground_thorax_tx	ground_thorax_ty	ground_thorax_tz	clav_prot_r	clav_elev_r	scapula_abduction_r	scapula_elevation_r	scapula_upward_rot_r	scapula_winging_r	shoulder_elv_r	plane_of_elev_r	axial_rot_r	elbow_flexion_r	pro_sup_r	wrist_flex_r	wrist_dev_r	clav_prot_l	clav_elev_l	scapula_abduction_l	scapula_elevation_l	scapula_upward_rot_l	scapula_winging_l	shoulder_elv_l	plane_of_elev_l	axial_rot_l	elbow_flexion_l	pro_sup_l	wrist_flex_l	wrist_dev_l	
2.5200	21.814831	48.273684	31.741155	-0.122922	1.025158	0.011778	-22.234980	21.245819	-35.571428	17.472192	23.684138	-5.988847	100.061738	-57.212703	68.940094	87.107318	-4.369073	-1.699667	24.616998	30.343803	-40.316741	-45.000000	20.532726	-22.140258	-1.715865	24.146635	-38.437247	-8.349734	60.529365	-7.433049	12.571462	-2.861726	
2.5300	21.603965	48.387958	31.865947	-0.123223	1.025088	0.011384	-21.882537	21.288685	-34.912733	17.520624	23.776442	-5.909899	98.710469	-57.704323	67.856898	86.106063	-4.485200	-2.184111	24.762483	30.425837	-40.465732	-45.000000	20.500796	-22.555057	-1.789594	24.535182	-37.359068	-8.242038	59.613744	-7.373871	12.896526	-2.465032	
2.5400	21.380575	48.475919	31.988406	-0.123518	1.025059	0.010990	-21.535262	21.300523	-34.224481	17.540042	23.864992	-5.845756	97.346393	-58.163874	66.801351	85.064690	-4.542320	-2.607417	24.856735	30.502006	-40.608066	-45.000000	20.472649	-22.945167	-1.861787	24.894007	-36.317675	-8.100011	58.683673	-7.293391	13.187073	-2.117604	
2.5500	21.160055	48.529283	32.105170	-0.123808	1.024998	0.010585	-21.143032	21.365075	-33.479916	17.600733	23.987438	-5.772582	95.795666	-58.678870	65.620157	83.952359	-4.572058	-3.009921	24.933721	30.575241	-40.726110	-45.000000	20.404147	-23.369548	-1.898594	25.270215	-35.238012	-7.953429	57.742737	-7.179311	13.504443	-1.795133	
2.5600	20.937663	48.569484	32.231256	-0.124097	1.024918	0.010178	-20.727294	21.462058	-32.707056	17.687153	24.126875	-5.696627	94.142199	-59.208109	64.379445	82.787306	-4.563320	-3.374994	24.981302	30.644198	-40.834280	-45.000000	20.327084	-23.789568	-1.925271	25.631685	-34.171559	-7.815274	56.795020	-7.034110	13.818603	-1.503408	
2.5700	20.716175	48.614624	32.370238	-0.124391	1.024809	0.009779	-20.284123	21.616065	-31.915115	17.817273	24.298055	-5.615056	92.361146	-59.789412	63.039422	81.569572	-4.535040	-3.721690	25.010456	30.711813	-40.936470	-45.000000	20.240483	-24.216937	-1.943464	25.990430	-33.101092	-7.703929	55.829130	-6.860807	14.138712	-1.220922	
2.5800	20.516306	48.655033	32.493308	-0.124697	1.024661	0.009386	-19.796331	21.814284	-31.069950	17.987063	24.483812	-5.522068	90.446705	-60.434390	61.565205	80.301637	-4.483623	-4.030726	25.022047	30.775887	-41.035565	-45.000000	20.157659	-24.628053	-1.961913	26.337155	-32.032044	-7.604737	54.843354	-6.677350	14.476973	-0.951455	
2.5900	20.323987	48.697314	32.614485	-0.125013	1.024497	0.009009	-19.275617	22.062117	-30.179077	18.192174	24.706508	-5.428665	88.388290	-61.146731	59.972211	78.976484	-4.403692	-4.308534	25.013713	30.837088	-41.132022	-45.000000	20.077653	-25.026493	-1.980511	26.673111	-30.967901	-7.520300	53.832396	-6.481695	14.813722	-0.690425	
2.6000	20.154673	48.726642	32.713260	-0.125336	1.024300	0.008646	-18.709083	22.355215	-29.214988	18.432124	24.960013	-5.332616	86.142790	-61.917606	58.213746	77.590466	-4.278443	-4.535638	24.974528	30.892625	-41.225449	-45.000000	20.009943	-25.389920	-2.004010	26.991006	-29.924881	-7.452074	52.807338	-6.279533	15.142941	-0.450906	
2.6100	19.974808	48.750611	32.818519	-0.125659	1.024150	0.008302	-18.160266	22.627671	-28.235346	18.644701	25.226773	-5.261601	83.856810	-62.646373	56.442512	76.167738	-4.104424	-4.726213	24.905208	30.943700	-41.325761	-45.000000	19.970626	-25.705344	-2.046830	27.271803	-28.949340	-7.376867	51.770437	-6.082476	15.415014	-0.231595	
2.6200	19.803885	48.750283	32.914543	-0.125989	1.024002	0.007957	-17.604174	22.893024	-27.227126	18.851354	25.490068	-5.197026	81.498823	-63.330796	54.614934	74.707280	-3.902079	-4.895667	24.828064	30.991683	-41.425113	-45.000000	19.940132	-25.998689	-2.093878	27.539919	-28.007028	-7.298476	50.731377	-5.898221	15.677633	-0.029317	
2.6300	19.611783	48.737398	33.045602	-0.126327	1.023882	0.007607	-17.071846	23.127322	-26.240029	19.033562	25.728473	-5.145006	79.154242	-63.910363	52.808382	73.221130	-3.687575	-5.061639	24.757706	31.039550	-41.525495	-45.000000	19.908445	-26.296852	-2.141334	27.799147	-27.100546	-7.220391	49.687459	-5.736393	15.932566	0.157191	
2.6400	19.415730	48.717272	33.195317	-0.126676	1.023767	0.007252	-16.556654	23.333899	-25.274859	19.198478	25.933167	-5.098109	76.840416	-64.391717	51.016689	71.722029	-3.460756	-5.220677	24.687034	31.087620	-41.630990	-45.000000	19.883478	-26.591532	-2.195539	28.052013	-26.227627	-7.160528	48.640065	-5.591951	16.179145	0.331409	
2.6500	19.207033	48.688369	33.361778	-0.127032	1.023703	0.006896	-16.085816	23.468176	-24.346200	19.307863	26.085444	-5.069361	74.635052	-64.734346	49.296151	70.226230	-3.220596	-5.369895	24.612396	31.136106	-41.745247	-45.000000	19.869663	-26.881097	-2.261218	28.296693	-25.397138	-7.097087	47.586912	-5.480918	16.398776	0.491741	
2.6600	19.007171	48.662797	33.526480	-0.127387	1.023641	0.006546	-15.635233	23.579453	-23.442160	19.400358	26.215636	-5.047947	72.476149	-65.002951	47.594268	68.734403	-2.962636	-5.509832	24.529185	31.185798	-41.869666	-45.000000	19.870244	-27.161888	-2.340703	28.536387	-24.589656	-7.051538	46.522444	-5.381279	16.593832	0.653413	
2.6700	18.820581	48.624793	33.707895	-0.127740	1.023498	0.006206	-15.132271	23.752432	-22.491967	19.553318	26.348628	-5.007877	70.089598	-65.285829	45.648169	67.197310	-2.673306	-5.607818	24.443546	31.235296	-41.982547	-45.000000	19.832774	-27.500017	-2.394578	28.800946	-23.728092	-7.041388	45.437288	-5.293385	16.822765	0.797592	
2.6800	18.664036	48.598705	33.878201	-0.128042	1.023264	0.005903	-14.600086	24.037888	-21.523009	19.783451	26.568829	-4.968357	67.405544	-65.604726	43.453940	65.618717	-2.310959	-5.670263	24.326327	31.282912	-42.091820	-45.000000	19.794537	-27.831393	-2.445840	29.055568	-22.859004	-7.090351	44.347105	-5.173204	16.999141	0.952273	
2.6900	18.530719	48.553768	34.062121	-0.128305	1.022900	0.005633	-13.988135	24.468001	-20.476190	20.127876	26.868353	-4.910886	64.259048	-65.985655	40.847939	63.958325	-1.871297	-5.673099	24.204298	31.327596	-42.180326	-45.000000	19.710233	-28.216744	-2.461722	29.321680	-21.932278	-7.170102	43.256133	-5.031434	17.178747	1.100007	
2.7000	18.412778	48.525513	34.241714	-0.128527	1.022515	0.005400	-13.398518	24.932027	-19.466095	20.487512	27.207111	-4.866947	61.065336	-66.316805	38.208538	62.303220	-1.381971	-5.662109	24.080266	31.372679	-42.282803	-45.000000	19.657103	-28.564689	-2.501825	29.550878	-21.050655	-7.247664	42.162172	-4.875997	17.309903	1.261004	
2.7100	18.309096	48.480455	34.424640	-0.128752	1.022094	0.005174	-12.788119	25.400677	-18.445745	20.864032	27.511190	-4.809981	57.871437	-66.617933	35.519471	60.647880	-0.892081	-5.630597	23.983312	31.419585	-42.386711	-45.000000	19.591089	-28.944134	-2.536858	29.787529	-20.148231	-7.283007	41.047790	-4.753815	17.520857	1.385287	
2.7200	18.210834	48.458388	34.576708	-0.128962	1.021775	0.004958	-12.286960	25.745233	-17.549015	21.132525	27.758705	-4.788113	55.155013	-66.769249	33.246322	59.092728	-0.424564	-5.633851	23.888222	31.470873	-42.527667	-45.000000	19.596640	-29.250097	-2.630498	29.991986	-19.341467	-7.269177	39.922938	-4.645220	17.706808	1.499588	
2.7300	18.110789	48.434214	34.721820	-0.129193	1.021527	0.004728	-11.851858	25.956542	-16.728936	21.305713	27.899053	-4.778564	52.915910	-66.795379	31.360128	57.628002	-0.002946	-5.657849	23.809150	31.527287	-42.693116	-45.000000	19.627485	-29.556332	-2.752711	30.206761	-18.573524	-7.206918	38.792094	-4.552072	17.927973	1.580904	
2.7400	18.000108	48.429031	34.863326	-0.129434	1.021341	0.004496	-11.492851	26.047460	-16.002056	21.388481	27.950763	-4.786081	51.120173	-66.711676	29.822984	56.261631	0.388535	-5.695807	23.737941	31.588362	-42.880924	-45.000000	19.664278	-29.899151	-2.892851	30.469516	-17.797837	-7.148556	37.639944	-4.403706	18.165657	1.641998	
2.7500	17.888261	48.424096	35.019684	-0.129692	1.021131	0.004258	-11.137409	26.101006	-15.299393	21.457766	27.936905	-4.782829	49.517742	-66.598486	28.409468	54.948978	0.757588	-5.722151	23.676733	31.652615	-43.070131	-45.000000	19.663862	-30.326327	-3.016468	30.790358	-16.956947	-7.104041	36.468797	-4.212475	18.460596	1.675338	
2.7600	17.778156	48.427577	35.174899	-0.129923	1.020907	0.004037	-10.804689	26.152762	-14.636230	21.522085	27.925865	-4.785600	47.993352	-66.471172	27.056148	53.682950	1.134347	-5.739870	23.600046	31.717193	-43.258766	-45.000000	19.646949	-30.787923	-3.131986	31.138148	-16.086016	-7.081455	35.289978	-3.952498	18.729766	1.715790	
2.7700	17.673756	48.429127	35.330319	-0.130130	1.020678	0.003826	-10.485393	26.206068	-14.005250	21.587227	27.914319	-4.788127	46.546958	-66.336709	25.775312	52.458368	1.505286	-5.752987	23.503589	31.781278	-43.445815	-45.000000	19.635060	-31.235735	-3.249058	31.454213	-15.229207	-7.005638	34.112078	-3.697508	18.969285	1.760644	
2.7800	17.574230	48.424532	35.478761	-0.130314	1.020443	0.003635	-10.177595	26.263140	-13.399514	21.653945	27.905457	-4.792114	45.139023	-66.196683	24.527280	51.277784	1.869495	-5.752430	23.387243	31.843642	-43.629776	-45.000000	19.624830	-31.673282	-3.365269	31.750498	-14.376355	-6.869388	32.924224	-3.435873	19.194329	1.794295	
2.7900	17.494395	48.424669	35.600725	-0.130470	1.020235	0.003449	-9.907391	26.294590	-12.850705	21.696570	27.888088	-4.803955	43.930164	-66.025544	23.466700	50.167960	2.200060	-5.761236	23.242818	31.905130	-43.824984	-45.000000	19.665048	-32.026909	-3.513394	31.974350	-13.599945	-6.643125	31.742442	-3.213067	19.393370	1.811238	
2.8000	17.431804	48.412115	35.714421	-0.130605	1.019975	0.003283	-9.609824	26.373530	-12.279128	21.780192	27.885326	-4.807824	42.604552	-65.863180	22.282261	49.071278	2.526242	-5.725815	23.079861	31.961616	-44.012599	-45.000000	19.679350	-32.418697	-3.645277	32.212659	-12.776368	-6.357355	30.554611	-2.896126	19.623960	1.769618	
2.8100	17.386186	48.394192	35.818928	-0.130714	1.019655	0.003129	-9.286923	26.505899	-11.691540	21.908893	27.902639	-4.802129	41.158452	-65.712288	20.977052	47.986018	2.839155	-5.650450	22.894375	32.013244	-44.190550	-45.000000	19.672649	-32.833451	-3.761433	32.453315	-11.916613	-6.017492	29.372844	-2.492100	19.875999	1.677981	
2.8200	17.350914	48.356106	35.928493	-0.130798	1.019231	0.002997	-8.903892	26.735753	-11.046471	22.120164	27.959577	-4.777604	39.401518	-65.601093	19.377553	46.883397	3.155069	-5.512530	22.697112	32.058751	-44.342542	-45.000000	19.599660	-33.332781	-3.829350	32.746710	-10.961025	-5.675390	28.196782	-1.954615	20.172415	1.537788	
2.8300	17.334462	48.320680	36.028177	-0.130835	1.018754	0.002881	-8.505773	27.037600	-10.405438	22.385696	28.062872	-4.743108	37.498326	-65.504458	17.656108	45.792385	3.414313	-5.343178	22.456051	32.101111	-44.482168	-45.000000	19.531223	-33.794569	-3.890842	32.990809	-10.015486	-5.272770	27.031353	-1.374147	20.448423	1.375954	
2.8400	17.326314	48.274855	36.114489	-0.130829	1.018252	0.002779	-8.110404	27.380680	-9.781347	22.678530	28.201425	-4.706484	35.531092	-65.403433	15.905541	44.732765	3.619698	-5.159974	22.177748	32.138448	-44.604265	-45.000000	19.469782	-34.201749	-3.943654	33.187419	-9.100965	-4.819363	25.884772	-0.778759	20.694763	1.209252	
2.8500	17.309608	48.228091	36.178183	-0.130777	1.017808	0.002671	-7.780460	27.682483	-9.242533	22.926134	28.347333	-4.685711	33.787431	-65.266167	14.411500	43.751833	3.751250	-5.016006	21.861823	32.170616	-44.710553	-45.000000	19.462432	-34.457002	-4.010906	33.273148	-8.308330	-4.310778	24.770733	-0.285265	20.858890	1.085880	
2.8600	17.263533	48.164482	36.230302	-0.130703	1.017444	0.002537	-7.529895	27.890876	-8.797757	23.090677	28.462201	-4.686196	32.409216	-65.083907	13.312772	42.883317	3.841032	-4.929527	21.531030	32.194184	-44.790276	-45.000000	19.483880	-34.590480	-4.073906	33.285541	-7.619534	-3.801180	23.697343	0.086234	20.943063	1.029667	
2.8700	17.192138	48.090987	36.277161	-0.130619	1.017154	0.002373	-7.345444	28.013957	-8.435173	23.183053	28.539740	-4.702170	31.367683	-64.871914	12.559884	42.118109	3.890540	-4.889404	21.190907	32.211009	-44.850370	-45.000000	19.525228	-34.637074	-4.133384	33.246211	-7.011839	-3.302226	22.661518	0.361527	20.959593	1.025665	
